# xmcd
#
# Track frame offsets:
#	150
#	17249
#	32637
#	48085
#	63804
#	79283
#	95041
#	109257
#	126170
#	146131
#	160496
#	176784
#
# Disc length: 2550 seconds
#
# Revision: 2
# Processed by: cddbd v1.5.2PL0 Copyright (c) Steve Scherf et al.
# Submitted via: EasyCDDAExtractor 15.3.0.1
#
DISCID=a709f40c
DTITLE=Lucero - Quiereme Tal Como Soy
DYEAR=2006
DGENRE=Latin
TTITLE0=Veleta
TTITLE1=La Gata Bajo La Lluvia
TTITLE2=Quiereme Tal Como Soy
TTITLE3=O Tu O Nada
TTITLE4=La Unica Que Te Entiende
TTITLE5=Ya No
TTITLE6=Jamas Te Dejare
TTITLE7=Tu Eres Mi Refugio
TTITLE8=Electricidad
TTITLE9=Que Pasara Mañana
TTITLE10=Y Que
TTITLE11=Sobrevivire
EXTD=YEAR: 2006
EXTT0=
EXTT1=
EXTT2=
EXTT3=
EXTT4=
EXTT5=
EXTT6=
EXTT7=
EXTT8=
EXTT9=
EXTT10=
EXTT11=
PLAYORDER=
